<?xml version="1.0" standalone="no"?><!DOCTYPE svg PUBLIC "-//W3C//DTD SVG 1.1//EN" "http://www.w3.org/Graphics/SVG/1.1/DTD/svg11.dtd"><svg t="1610692831237" class="icon" viewBox="0 0 1024 1024" version="1.1" xmlns="http://www.w3.org/2000/svg" p-id="1975" xmlns:xlink="http://www.w3.org/1999/xlink" width="200" height="200"><defs><style type="text/css"></style></defs><path d="M32 511.999c0 265.097 214.903 479.999 479.999 479.999s479.999-214.903 479.999-479.999c0-265.097-214.903-479.999-479.999-479.999-265.097 0-479.999 214.903-479.999 479.999z" fill="#D496BC" p-id="1976"></path><path d="M308.719 586.111c-82.249 132.346 12.924 303.548 168.745 303.548h116.159c155.822 0 250.994-171.202 168.745-303.548l-141.564-227.789v-49.046l43.276-127.847h-257.073l43.275 127.847v19.694c-12.776 0.828-25.26 5.055-36.69 12.52-12.44 8.128-23.549 20.123-31.275 33.78-4.377 7.736-7.836 15.564-11.181 23.136-2.956 6.689-5.747 13.009-9.050 19.054-6.387 11.693-14.588 20.768-25.072 27.742-12.795 8.513-28.893 13.914-45.326 15.209l2.285 29.001c21.602-1.701 42.056-8.613 59.154-19.988 14.303-9.516 25.906-22.308 34.488-38.018 3.887-7.117 7.060-14.298 10.129-21.243 3.199-7.242 6.222-14.082 9.891-20.566 11.85-20.944 28.416-29.719 42.646-31.366v0.092l-141.563 227.788z" fill="" p-id="1977"></path><path d="M426.739 334.779l-141.564 227.789c-82.249 132.346 12.923 303.547 168.746 303.547h58.078v-531.337h-85.26z" fill="#997737" p-id="1978"></path><path d="M597.261 334.779h-85.261v531.337h58.079c155.821 0 250.994-171.201 168.746-303.547l-141.564-227.79z" fill="#826128" p-id="1979"></path><path d="M383.463 157.886l43.276 127.846 85.26 10.799v-138.645z" fill="#997737" p-id="1980"></path><path d="M511.999 157.886v138.645l85.261-10.799 43.276-127.846z" fill="#826128" p-id="1981"></path><path d="M426.739 285.732h170.522v49.047h-170.522z" fill="#FDF395" p-id="1982"></path><path d="M558.937 553.903c-12.981-11.539-24.159-17.307-37.5-17.307-15.504 0-23.077 4.328-23.077 18.75 0 27.402 93.028 28.845 93.028 94.47 0 34.975-18.39 62.379-56.25 71.393v38.222h-40.385v-36.058c-20.552-2.524-46.153-11.178-64.182-27.403l26.683-41.826c19.47 14.423 34.615 20.192 49.759 20.192 18.029 0 25.24-6.129 25.24-20.192 0-28.846-93.028-32.812-93.028-95.913 0-36.418 20.553-61.658 55.528-69.231v-37.5h40.385v36.779c22.717 3.606 40.025 15.143 54.448 30.289l-30.649 35.335z" fill="#C1D648" p-id="1983"></path><path d="M270.432 465.867l-2.285-29.001c16.433-1.295 32.532-6.696 45.327-15.209 10.483-6.975 18.684-16.049 25.071-27.743 3.302-6.045 6.094-12.364 9.050-19.054 3.345-7.57 6.803-15.398 11.181-23.136 7.728-13.657 18.835-25.652 31.275-33.78 15.452-10.092 32.824-14.286 50.246-12.13l-3.574 28.871c-15.766-1.948-37.86 5.265-52.629 31.366-3.667 6.483-6.69 13.325-9.89 20.566-3.069 6.945-6.242 14.126-10.129 21.243-8.58 15.711-20.184 28.502-34.488 38.018-17.099 11.376-37.555 18.288-59.155 19.988z" fill="#FDF395" p-id="1984"></path></svg>